<svg width="25" height="25" viewBox="0 0 25 25" fill="none" xmlns="http://www.w3.org/2000/svg">
<path d="M9.26001 6.49324C9.26001 5.8744 8.99662 5.28091 8.52778 4.84333C8.05894 4.40574 7.42305 4.15991 6.76001 4.15991C6.09697 4.15991 5.46108 4.40574 4.99224 4.84333C4.5234 5.28091 4.26001 5.8744 4.26001 6.49324V11.1599" stroke="#191A23" stroke-width="1.5" stroke-linecap="round" stroke-linejoin="round"/>
<path d="M3.26001 11.1599H21.26M17.76 19.1599L18.26 21.1599M6.76001 19.1599L6.26001 21.1599M20.26 15.1599V11.1599H4.26001V15.1599C4.26001 16.2208 4.68144 17.2382 5.43158 17.9883C6.18173 18.7385 7.19914 19.1599 8.26001 19.1599H16.26C17.3209 19.1599 18.3383 18.7385 19.0884 17.9883C19.8386 17.2382 20.26 16.2208 20.26 15.1599Z" stroke="#191A23" stroke-width="1.5" stroke-linecap="round" stroke-linejoin="round"/>
</svg>
