<svg width="24" height="25" viewBox="0 0 24 25" fill="none" xmlns="http://www.w3.org/2000/svg">
<path d="M20.8889 19.1599V16.9932M3.11111 19.1599V16.9932M22 16.9932H2V13.7432C2 13.4559 2.11706 13.1804 2.32544 12.9772C2.53381 12.774 2.81643 12.6599 3.11111 12.6599H20.8889C21.1836 12.6599 21.4662 12.774 21.6746 12.9772C21.8829 13.1804 22 13.4559 22 13.7432V16.9932ZM19.7778 7.24324C19.7778 6.95593 19.6607 6.68038 19.4523 6.47721C19.244 6.27405 18.9614 6.15991 18.6667 6.15991H5.33333C5.03865 6.15991 4.75603 6.27405 4.54766 6.47721C4.33929 6.68038 4.22222 6.95593 4.22222 7.24324V12.6599H19.7778V7.24324Z" stroke="#191A23" stroke-width="1.5" stroke-linecap="round" stroke-linejoin="round"/>
</svg>
