<svg width="189" height="83" viewBox="0 0 189 83" fill="none" xmlns="http://www.w3.org/2000/svg">
<path d="M59.5454 35.8512C60.605 36.9109 60.605 38.629 59.5454 39.6888L40.292 58.9423C39.2323 60.002 37.5142 60.002 36.4544 58.9423L24.3383 46.8262C23.2785 45.7661 23.2785 44.0481 24.3383 42.9884L43.5917 23.735C44.6514 22.6753 46.3696 22.6753 47.4293 23.735L59.5454 35.8512Z" fill="black"/>
<path d="M64.068 39.6888C65.1277 38.629 65.1277 36.9109 64.068 35.8512L55.1589 26.9421L58.3663 23.735C59.426 22.6753 61.1441 22.6753 62.2038 23.735L74.3199 35.8512C75.3796 36.9109 75.3796 38.629 74.3199 39.6888L55.0666 58.9423C54.007 60.002 52.2888 60.002 51.2287 58.9423L48.0217 55.7349L64.068 39.6888Z" fill="black"/>
<path d="M95.5662 42.6936C96.5887 42.8843 97.4295 43.3957 98.0884 44.2278C98.7469 45.0599 99.0766 46.0133 99.0766 47.0883C99.0766 48.0589 98.8338 48.9168 98.3485 49.6626C97.8804 50.3908 97.1957 50.9624 96.2943 51.3785C95.393 51.7946 94.3265 52.0026 93.0959 52.0026H85.269V33.8525H92.7576C93.9887 33.8525 95.0461 34.0519 95.9302 34.4506C96.8316 34.8493 97.5077 35.4041 97.9582 36.1148C98.4263 36.8256 98.6606 37.6317 98.6606 38.5331C98.6606 39.5906 98.3743 40.4747 97.8022 41.1854C97.2477 41.8962 96.5024 42.3989 95.5662 42.6936ZM88.9093 41.3415H92.2375C93.1045 41.3415 93.772 41.1508 94.2401 40.7694C94.7078 40.3707 94.9421 39.8073 94.9421 39.0792C94.9421 38.3511 94.7078 37.7877 94.2401 37.389C93.772 36.9903 93.1045 36.7909 92.2375 36.7909H88.9093V41.3415ZM92.5758 49.0385C93.46 49.0385 94.1447 48.8305 94.63 48.4144C95.1329 47.9983 95.3839 47.409 95.3839 46.646C95.3839 45.8659 95.1239 45.2594 94.6038 44.8259C94.0841 44.3752 93.3817 44.1498 92.4976 44.1498H88.9093V49.0385H92.5758Z" fill="black"/>
<path d="M107.335 52.237C105.948 52.237 104.7 51.9335 103.59 51.3266C102.481 50.7025 101.605 49.8273 100.964 48.7003C100.34 47.5737 100.028 46.2734 100.028 44.8C100.028 43.3264 100.348 42.0263 100.99 40.8995C101.649 39.7727 102.542 38.9059 103.668 38.2992C104.795 37.6751 106.052 37.363 107.439 37.363C108.825 37.363 110.082 37.6751 111.209 38.2992C112.336 38.9059 113.22 39.7727 113.861 40.8995C114.52 42.0263 114.849 43.3264 114.849 44.8C114.849 46.2734 114.512 47.5737 113.835 48.7003C113.176 49.8273 112.275 50.7025 111.131 51.3266C110.004 51.9335 108.739 52.237 107.335 52.237ZM107.335 49.0644C107.994 49.0644 108.609 48.9083 109.181 48.5963C109.77 48.267 110.238 47.7817 110.585 47.1404C110.932 46.4987 111.105 45.7185 111.105 44.8C111.105 43.4305 110.741 42.3817 110.013 41.6536C109.302 40.9081 108.427 40.5354 107.387 40.5354C106.346 40.5354 105.471 40.9081 104.76 41.6536C104.067 42.3817 103.72 43.4305 103.72 44.8C103.72 46.1694 104.058 47.2268 104.735 47.9721C105.428 48.7003 106.294 49.0644 107.335 49.0644Z" fill="black"/>
<path d="M120.12 39.8332C120.588 39.0705 121.195 38.4724 121.94 38.039C122.703 37.6056 123.57 37.3889 124.541 37.3889V41.2114H123.578C122.434 41.2114 121.568 41.4801 120.978 42.0175C120.406 42.5549 120.12 43.491 120.12 44.8258V52.0026H116.48V37.597H120.12V39.8332Z" fill="black"/>
<path d="M125.017 44.7477C125.017 43.2915 125.303 42 125.875 40.8732C126.464 39.7465 127.261 38.8797 128.267 38.2729C129.273 37.6662 130.391 37.3628 131.621 37.3628C132.557 37.3628 133.45 37.5708 134.3 37.9869C135.149 38.3856 135.825 38.923 136.328 39.5991V32.7603H140.021V52.0025H136.328V49.8705C135.877 50.581 135.245 51.1531 134.43 51.5864C133.615 52.0201 132.67 52.2368 131.595 52.2368C130.382 52.2368 129.273 51.9247 128.267 51.3006C127.261 50.6764 126.464 49.8009 125.875 48.6743C125.303 47.53 125.017 46.2212 125.017 44.7477ZM136.354 44.7997C136.354 43.9156 136.181 43.1615 135.834 42.5375C135.487 41.896 135.019 41.4107 134.43 41.0813C133.84 40.7346 133.208 40.5612 132.532 40.5612C131.856 40.5612 131.231 40.7259 130.659 41.0553C130.087 41.3846 129.619 41.87 129.255 42.5115C128.909 43.1355 128.735 43.881 128.735 44.7477C128.735 45.6147 128.909 46.3772 129.255 47.0362C129.619 47.6775 130.087 48.1714 130.659 48.5182C131.249 48.8647 131.873 49.0383 132.532 49.0383C133.208 49.0383 133.84 48.8737 134.43 48.544C135.019 48.1976 135.487 47.7119 135.834 47.0882C136.181 46.4464 136.354 45.6839 136.354 44.7997Z" fill="black"/>
<path d="M155.928 44.4879C155.928 45.008 155.893 45.4761 155.824 45.8922H145.292C145.379 46.9324 145.743 47.7469 146.384 48.3362C147.026 48.926 147.814 49.2204 148.751 49.2204C150.103 49.2204 151.065 48.6397 151.637 47.4783H155.563C155.147 48.8649 154.35 50.0091 153.171 50.9105C151.992 51.7947 150.545 52.237 148.828 52.237C147.442 52.237 146.193 51.9335 145.084 51.3266C143.992 50.7025 143.134 49.8273 142.51 48.7003C141.903 47.5737 141.6 46.2734 141.6 44.8C141.6 43.3091 141.903 42.0003 142.51 40.8735C143.116 39.7467 143.966 38.8799 145.058 38.2732C146.15 37.6664 147.407 37.363 148.828 37.363C150.198 37.363 151.42 37.6578 152.495 38.2472C153.587 38.8366 154.428 39.6773 155.017 40.7695C155.624 41.8442 155.928 43.0838 155.928 44.4879ZM152.157 43.4478C152.139 42.5117 151.802 41.7663 151.143 41.2115C150.484 40.6395 149.678 40.3534 148.724 40.3534C147.823 40.3534 147.06 40.6308 146.436 41.1855C145.829 41.7229 145.457 42.477 145.318 43.4478H152.157Z" fill="black"/>
<path d="M161.185 39.8332C161.653 39.0705 162.26 38.4724 163.005 38.039C163.768 37.6056 164.635 37.3889 165.606 37.3889V41.2114H164.643C163.499 41.2114 162.632 41.4801 162.043 42.0175C161.471 42.5549 161.185 43.491 161.185 44.8258V52.0026H157.544V37.597H161.185V39.8332Z" fill="black"/>
</svg>
