<svg width="22" height="22" viewBox="0 0 22 22" fill="none" xmlns="http://www.w3.org/2000/svg">
<g clip-path="url(#clip0_2_4814)">
<path opacity="0.4" d="M10.9999 20.1666C16.0625 20.1666 20.1666 16.0625 20.1666 10.9999C20.1666 5.93731 16.0625 1.83325 10.9999 1.83325C5.93731 1.83325 1.83325 5.93731 1.83325 10.9999C1.83325 16.0625 5.93731 20.1666 10.9999 20.1666Z" stroke="black" stroke-width="1.83333" stroke-linecap="round" stroke-linejoin="round"/>
<path d="M7.79175 13.4445C7.79175 14.6258 8.74936 15.5834 9.93064 15.5834H11.9167C13.1824 15.5834 14.2084 14.5574 14.2084 13.2917C14.2084 12.0261 13.1824 11.0001 11.9167 11.0001H10.0834C8.81776 11.0001 7.79175 9.97407 7.79175 8.70841C7.79175 7.44276 8.81776 6.41675 10.0834 6.41675H12.0695C13.2508 6.41675 14.2084 7.37436 14.2084 8.55564M11.0001 5.04175V6.41675M11.0001 15.5834V16.9584" stroke="black" stroke-width="1.83333" stroke-linecap="round" stroke-linejoin="round"/>
</g>
<defs>
<clipPath id="clip0_2_4814">
<rect width="22" height="22" fill="white"/>
</clipPath>
</defs>
</svg>
