<svg width="30" height="31" viewBox="0 0 30 31" fill="none" xmlns="http://www.w3.org/2000/svg">
<path opacity="0.4" d="M15 8V28M15 8H10.5804C9.92916 8 9.30463 7.73661 8.84416 7.26777C8.38369 6.79893 8.125 6.16304 8.125 5.5C8.125 4.83696 8.38369 4.20107 8.84416 3.73223C9.30463 3.26339 9.92916 3 10.5804 3C14.0179 3 15 8 15 8ZM15 8H19.4196C20.0708 8 20.6954 7.73661 21.1558 7.26777C21.6163 6.79893 21.875 6.16304 21.875 5.5C21.875 4.83696 21.6163 4.20107 21.1558 3.73223C20.6954 3.26339 20.0708 3 19.4196 3C15.9821 3 15 8 15 8Z" stroke="white" stroke-width="2.5" stroke-linecap="round" stroke-linejoin="round"/>
<path d="M25 14.25V24C25 25.4001 25 26.1002 24.7275 26.635C24.4878 27.1054 24.1054 27.4878 23.635 27.7275C23.1002 28 22.4001 28 21 28L9 28C7.59987 28 6.8998 28 6.36502 27.7275C5.89462 27.4878 5.51217 27.1054 5.27248 26.635C5 26.1002 5 25.4001 5 24V14.25M2.5 10L2.5 12.25C2.5 12.9501 2.5 13.3001 2.63624 13.5675C2.75608 13.8027 2.94731 13.9939 3.18251 14.1138C3.4499 14.25 3.79993 14.25 4.5 14.25L25.5 14.25C26.2001 14.25 26.5501 14.25 26.8175 14.1138C27.0527 13.9939 27.2439 13.8027 27.3638 13.5675C27.5 13.3001 27.5 12.9501 27.5 12.25V10C27.5 9.29993 27.5 8.9499 27.3638 8.68251C27.2439 8.44731 27.0527 8.25608 26.8175 8.13624C26.5501 8 26.2001 8 25.5 8L4.5 8C3.79993 8 3.4499 8 3.18251 8.13624C2.94731 8.25608 2.75608 8.44731 2.63624 8.68251C2.5 8.9499 2.5 9.29993 2.5 10Z" stroke="white" stroke-width="2.5" stroke-linecap="round" stroke-linejoin="round"/>
</svg>
