<svg width="190" height="83" viewBox="0 0 190 83" fill="none" xmlns="http://www.w3.org/2000/svg">
<path opacity="0.8" d="M43.2936 37.2378H53.811L43.2936 21.3335H32.7764L43.2936 37.2378Z" fill="black"/>
<path opacity="0.9" d="M32.5227 37.2378H22.0054L32.5227 21.3335H43.04L32.5227 37.2378Z" fill="black"/>
<path opacity="0.6" d="M43.2954 53.1423V37.238H53.8124V53.1423H43.2954Z" fill="black"/>
<path d="M22.0037 53.1423V37.238H32.521V53.1423H22.0037Z" fill="black"/>
<path d="M80.7019 31.52V53.1628H76.3608V43.9535H67.0899V53.1628H62.7493V31.52H67.0899V40.4189H76.3608V31.52H80.7019Z" fill="black"/>
<path d="M91.3619 53.4415C89.7083 53.4415 88.2198 53.0799 86.8969 52.3563C85.5739 51.6122 84.5302 50.5681 83.7654 49.2248C83.021 47.8811 82.6492 46.3306 82.6492 44.5739C82.6492 42.8167 83.0316 41.2663 83.7964 39.9227C84.5816 38.5791 85.6465 37.5456 86.9898 36.8221C88.3336 36.0779 89.8323 35.7058 91.4858 35.7058C93.1394 35.7058 94.6381 36.0779 95.9818 36.8221C97.3256 37.5456 98.3799 38.5791 99.1447 39.9227C99.9299 41.2663 100.323 42.8167 100.323 44.5739C100.323 46.3306 99.9197 47.8811 99.1137 49.2248C98.3281 50.5681 97.253 51.6122 95.8889 52.3563C94.5451 53.0799 93.0363 53.4415 91.3619 53.4415ZM91.3619 49.6586C92.1475 49.6586 92.8814 49.4727 93.5634 49.1009C94.2663 48.7079 94.8244 48.1289 95.2378 47.3641C95.6512 46.5993 95.8579 45.6693 95.8579 44.5739C95.8579 42.9407 95.4237 41.6901 94.5558 40.8219C93.7082 39.9331 92.6641 39.4886 91.4239 39.4886C90.1837 39.4886 89.1396 39.9331 88.2924 40.8219C87.4652 41.6901 87.0518 42.9407 87.0518 44.5739C87.0518 46.2067 87.455 47.4677 88.261 48.3564C89.0882 49.2248 90.1217 49.6586 91.3619 49.6586Z" fill="black"/>
<path d="M123.599 35.7368C125.708 35.7368 127.403 36.3879 128.684 37.6902C129.986 38.9718 130.638 40.7702 130.638 43.0854V53.1627H126.297V43.6745C126.297 42.3309 125.956 41.3077 125.274 40.6048C124.592 39.8814 123.661 39.5196 122.483 39.5196C121.305 39.5196 120.364 39.8814 119.661 40.6048C118.979 41.3077 118.638 42.3309 118.638 43.6745V53.1627H114.297V43.6745C114.297 42.3309 113.956 41.3077 113.274 40.6048C112.592 39.8814 111.662 39.5196 110.483 39.5196C109.284 39.5196 108.334 39.8814 107.631 40.6048C106.949 41.3077 106.608 42.3309 106.608 43.6745V53.1627H102.267V35.9849H106.608V38.0623C107.166 37.3388 107.879 36.7704 108.747 36.357C109.636 35.9435 110.607 35.7368 111.662 35.7368C113.005 35.7368 114.204 36.0262 115.259 36.605C116.313 37.1631 117.129 37.9693 117.708 39.0235C118.266 38.0313 119.072 37.2354 120.127 36.636C121.202 36.0366 122.359 35.7368 123.599 35.7368Z" fill="black"/>
<path d="M149.485 44.2017C149.485 44.8218 149.444 45.3799 149.361 45.876H136.804C136.907 47.1162 137.341 48.0878 138.106 48.7906C138.871 49.4935 139.811 49.8449 140.927 49.8449C142.54 49.8449 143.687 49.1522 144.369 47.7673H149.051C148.555 49.4209 147.604 50.7854 146.198 51.8601C144.793 52.9144 143.067 53.4415 141.02 53.4415C139.367 53.4415 137.878 53.0799 136.555 52.3563C135.253 51.6122 134.23 50.5681 133.486 49.2248C132.762 47.8811 132.401 46.3306 132.401 44.5739C132.401 42.7959 132.762 41.2353 133.486 39.8917C134.209 38.5481 135.222 37.5145 136.524 36.791C137.827 36.0676 139.325 35.7058 141.02 35.7058C142.653 35.7058 144.111 36.0572 145.392 36.7601C146.695 37.4629 147.697 38.4654 148.4 39.7677C149.124 41.0493 149.485 42.5273 149.485 44.2017ZM144.989 42.9615C144.968 41.8451 144.565 40.9563 143.78 40.2948C142.994 39.6127 142.033 39.2716 140.896 39.2716C139.821 39.2716 138.912 39.6023 138.168 40.2638C137.444 40.9046 137 41.8038 136.835 42.9615H144.989Z" fill="black"/>
<path d="M167.847 35.9849L157.212 61.2863H152.592L156.312 52.7285L149.429 35.9849H154.297L158.731 47.9846L163.227 35.9849H167.847Z" fill="black"/>
</svg>
