<svg width="22" height="22" viewBox="0 0 22 22" fill="none" xmlns="http://www.w3.org/2000/svg">
<g clip-path="url(#clip0_2_4808)">
<path opacity="0.4" d="M4.58325 13.0959C2.88617 13.8446 1.83325 14.8879 1.83325 16.0418C1.83325 18.32 5.93731 20.1668 10.9999 20.1668C16.0625 20.1668 20.1666 18.32 20.1666 16.0418C20.1666 14.8879 19.1137 13.8446 17.4166 13.0959" stroke="black" stroke-width="1.83333" stroke-linecap="round" stroke-linejoin="round"/>
<path d="M11 15.5833C12.375 12.8333 16.5 11.0583 16.5 7.33325C16.5 4.29569 14.0376 1.83325 11 1.83325C7.96243 1.83325 5.5 4.29569 5.5 7.33325C5.5 11.0583 9.625 12.8333 11 15.5833Z" stroke="black" stroke-width="1.83333" stroke-linecap="round" stroke-linejoin="round"/>
<path d="M11 8.24992C11.5063 8.24992 11.9167 7.83951 11.9167 7.33325C11.9167 6.82699 11.5063 6.41659 11 6.41659C10.4937 6.41659 10.0833 6.82699 10.0833 7.33325C10.0833 7.83951 10.4937 8.24992 11 8.24992Z" stroke="black" stroke-width="1.83333" stroke-linecap="round" stroke-linejoin="round"/>
</g>
<defs>
<clipPath id="clip0_2_4808">
<rect width="22" height="22" fill="white"/>
</clipPath>
</defs>
</svg>
