<svg width="190" height="75" viewBox="0 0 190 75" fill="none" xmlns="http://www.w3.org/2000/svg">
<path d="M27.4291 26.6254C29.3641 24.7779 31.9916 23.6996 34.6547 23.5655C35.5661 23.5655 36.4802 23.5709 37.3917 23.5627C37.3451 24.5399 37.3917 25.5197 37.3643 26.4968C37.2357 28.6809 36.4282 30.8157 35.068 32.529C33.2999 34.8336 30.5957 36.38 27.7247 36.7796C26.4711 36.9821 25.1984 36.8535 23.9367 36.889C23.9586 35.8134 23.8902 34.7351 23.975 33.6622C24.2214 31.0018 25.4776 28.4537 27.4291 26.6254Z" fill="black"/>
<path d="M38.2356 23.5627C39.2127 23.5737 40.1898 23.5573 41.1697 23.5682C43.6083 23.7406 46.0141 24.6767 47.8504 26.2997C49.8758 28.0377 51.2635 30.5229 51.6195 33.1777C51.7752 34.4093 51.6769 35.6547 51.7372 36.8918C50.883 36.889 50.032 36.8863 49.1778 36.8918C47.0787 36.8343 45.0151 36.1555 43.258 35.0115C42.4478 34.4313 41.6158 33.8428 41.0082 33.0381C39.6753 31.5492 38.7693 29.6799 38.4272 27.7093C38.1699 26.3408 38.2739 24.9449 38.2356 23.5627Z" fill="black"/>
<path d="M23.9386 37.6743C24.8062 37.7236 25.6766 37.6333 26.5414 37.7291C30.2445 37.8084 33.8382 39.8885 35.7568 43.0552C36.8571 44.8287 37.4483 46.9305 37.3717 49.019C37.3689 49.7031 37.3799 50.3848 37.3607 51.0662C35.9867 51.0254 34.5991 51.1375 33.2388 50.872C30.2172 50.3631 27.4392 48.5648 25.7669 45.9974C24.4997 44.1308 23.8674 41.8509 23.9331 39.5984C23.9331 38.9552 23.9331 38.3148 23.9386 37.6743Z" fill="black"/>
<path d="M47.1125 37.9642C48.6017 37.633 50.1367 37.6877 51.6505 37.6877L51.7163 37.7534C51.6834 39.1848 51.7955 40.6327 51.5082 42.0477C50.9033 45.2226 48.8015 48.058 45.974 49.6153C44.2142 50.5951 42.1943 51.0771 40.1826 51.0549C39.5394 51.0577 38.8935 51.0442 38.2503 51.0632C38.2503 49.8781 38.201 48.6874 38.3352 47.5079C38.6472 44.6533 40.1908 41.9957 42.4105 40.2003C43.7844 39.1164 45.3992 38.3309 47.1125 37.9642Z" fill="black"/>
<path d="M62.9521 45.7654C62.9521 46.2472 62.7853 46.6549 62.452 46.9886C62.1369 47.3037 61.7383 47.4609 61.2567 47.4609C60.7932 47.4609 60.4039 47.3037 60.0892 46.9886C59.774 46.6549 59.6165 46.2472 59.6165 45.7654V28.5858C59.6165 28.104 59.774 27.7055 60.0892 27.3905C60.4224 27.0569 60.8303 26.8901 61.3123 26.8901C61.7939 26.8901 62.1832 27.0569 62.4798 27.3905C62.7945 27.7055 62.9521 28.104 62.9521 28.5858V45.7654Z" fill="black"/>
<path d="M76.3416 32.5889C76.8231 32.5889 77.2217 32.7556 77.5369 33.0892C77.8516 33.4043 78.0092 33.8027 78.0092 34.2846V41.3454C78.0092 43.3098 77.4627 44.8665 76.3694 46.0156C75.2756 47.1647 73.7007 47.739 71.6433 47.739C69.5863 47.739 68.011 47.1647 66.9176 46.0156C65.8428 44.8665 65.3052 43.3098 65.3052 41.3454V34.2846C65.3052 33.8027 65.4628 33.4043 65.7779 33.0892C66.0931 32.7556 66.4912 32.5889 66.9732 32.5889C67.4553 32.5889 67.8534 32.7556 68.1686 33.0892C68.4837 33.4043 68.6413 33.8027 68.6413 34.2846V41.3454C68.6413 42.4759 68.8916 43.3191 69.3917 43.8751C69.8922 44.4125 70.6426 44.6812 71.6433 44.6812C72.6629 44.6812 73.4226 44.4125 73.9231 43.8751C74.4232 43.3191 74.6735 42.4759 74.6735 41.3454V34.2846C74.6735 33.8027 74.8311 33.4043 75.1462 33.0892C75.4609 32.7556 75.8595 32.5889 76.3416 32.5889Z" fill="black"/>
<path d="M88.042 32.3108C89.5246 32.3108 90.618 32.6722 91.3225 33.3949C92.0265 34.0992 92.49 35.0165 92.712 36.147L92.2397 35.8968L92.4622 35.452C92.6842 35.0258 93.0272 34.5717 93.4906 34.0899C93.9536 33.5895 94.5098 33.1725 95.1582 32.839C95.8256 32.4868 96.5667 32.3108 97.3825 32.3108C98.7168 32.3108 99.7268 32.598 100.412 33.1725C101.117 33.747 101.598 34.5161 101.858 35.4798C102.117 36.425 102.247 37.4813 102.247 38.6488V45.7653C102.247 46.2471 102.09 46.6548 101.774 46.9885C101.459 47.3037 101.061 47.4608 100.579 47.4608C100.098 47.4608 99.6989 47.3037 99.3838 46.9885C99.0686 46.6548 98.911 46.2471 98.911 45.7653V38.6488C98.911 38.0373 98.8373 37.4906 98.689 37.0087C98.5407 36.5083 98.2719 36.1099 97.8826 35.8134C97.4937 35.5169 96.9375 35.3686 96.215 35.3686C95.5105 35.3686 94.9084 35.5169 94.4079 35.8134C93.9073 36.1099 93.5277 36.5083 93.2682 37.0087C93.0271 37.4906 92.9066 38.0373 92.9066 38.6488V45.7653C92.9066 46.2471 92.7491 46.6548 92.4344 46.9885C92.1192 47.3037 91.7206 47.4608 91.239 47.4608C90.757 47.4608 90.3584 47.3037 90.0437 46.9885C89.7286 46.6548 89.571 46.2471 89.571 45.7653V38.6488C89.571 38.0373 89.4968 37.4906 89.3485 37.0087C89.2002 36.5083 88.9314 36.1099 88.5425 35.8134C88.1532 35.5169 87.597 35.3686 86.8745 35.3686C86.1704 35.3686 85.5679 35.5169 85.0673 35.8134C84.5672 36.1099 84.1872 36.5083 83.9276 37.0087C83.6871 37.4906 83.5666 38.0373 83.5666 38.6488V45.7653C83.5666 46.2471 83.409 46.6548 83.0938 46.9885C82.7787 47.3037 82.3806 47.4608 81.8985 47.4608C81.4165 47.4608 81.0184 47.3037 80.7032 46.9885C80.388 46.6548 80.2305 46.2471 80.2305 45.7653V34.2845C80.2305 33.8026 80.388 33.4042 80.7032 33.0892C81.0184 32.7555 81.4165 32.5888 81.8985 32.5888C82.3806 32.5888 82.7787 32.7555 83.0938 33.0892C83.409 33.4042 83.5666 33.8026 83.5666 34.2845V35.4798L83.1495 35.3964C83.3163 35.0814 83.5481 34.7478 83.8442 34.3957C84.1408 34.025 84.5024 33.6822 84.9288 33.3671C85.3547 33.0521 85.8274 32.8019 86.3461 32.6165C86.8652 32.4127 87.4306 32.3108 88.042 32.3108Z" fill="black"/>
<path d="M107.609 45.7653C107.609 46.2472 107.451 46.6549 107.136 46.9886C106.821 47.3037 106.423 47.4609 105.941 47.4609C105.459 47.4609 105.061 47.3037 104.745 46.9886C104.431 46.6549 104.273 46.2472 104.273 45.7653V34.2845C104.273 33.8027 104.431 33.4042 104.745 33.0892C105.061 32.7556 105.459 32.5888 105.941 32.5888C106.423 32.5888 106.821 32.7556 107.136 33.0892C107.451 33.4042 107.609 33.8027 107.609 34.2845V45.7653ZM105.913 30.7819C105.283 30.7819 104.838 30.68 104.579 30.4761C104.319 30.2723 104.19 29.9109 104.19 29.392V28.8638C104.19 28.3264 104.329 27.965 104.606 27.7797C104.903 27.5758 105.348 27.4739 105.941 27.4739C106.59 27.4739 107.044 27.5758 107.303 27.7797C107.562 27.9835 107.692 28.3449 107.692 28.8638V29.392C107.692 29.9294 107.553 30.3001 107.275 30.5039C106.997 30.6893 106.543 30.7819 105.913 30.7819Z" fill="black"/>
<path d="M117.598 32.3108C118.969 32.3108 120.007 32.598 120.711 33.1725C121.434 33.747 121.925 34.5161 122.184 35.4798C122.462 36.425 122.601 37.4813 122.601 38.6488V45.7653C122.601 46.2471 122.444 46.6548 122.129 46.9885C121.814 47.3037 121.415 47.4608 120.933 47.4608C120.452 47.4608 120.053 47.3037 119.738 46.9885C119.423 46.6548 119.265 46.2471 119.265 45.7653V38.6488C119.265 38.0373 119.182 37.4906 119.016 37.0087C118.867 36.5083 118.589 36.1099 118.181 35.8134C117.774 35.5169 117.19 35.3686 116.43 35.3686C115.689 35.3686 115.059 35.5169 114.54 35.8134C114.04 36.1099 113.65 36.5083 113.372 37.0087C113.113 37.4906 112.983 38.0373 112.983 38.6488V45.7653C112.983 46.2471 112.826 46.6548 112.511 46.9885C112.195 47.3037 111.797 47.4608 111.315 47.4608C110.833 47.4608 110.435 47.3037 110.12 46.9885C109.805 46.6548 109.647 46.2471 109.647 45.7653V34.2845C109.647 33.8026 109.805 33.4042 110.12 33.0892C110.435 32.7555 110.833 32.5888 111.315 32.5888C111.797 32.5888 112.195 32.7555 112.511 33.0892C112.826 33.4042 112.983 33.8026 112.983 34.2845V35.4798L112.566 35.3964C112.733 35.0814 112.974 34.7478 113.289 34.3957C113.604 34.025 113.975 33.6822 114.401 33.3671C114.827 33.0521 115.309 32.8019 115.846 32.6165C116.384 32.4127 116.967 32.3108 117.598 32.3108Z" fill="black"/>
<path d="M139.106 40.0388C139.106 41.5584 138.763 42.902 138.077 44.0696C137.41 45.2186 136.502 46.1174 135.353 46.766C134.222 47.4144 132.953 47.7389 131.544 47.7389C130.136 47.7389 128.857 47.4144 127.708 46.766C126.578 46.1174 125.67 45.2186 124.984 44.0696C124.317 42.902 123.983 41.5584 123.983 40.0388C123.983 38.5191 124.317 37.1848 124.984 36.0358C125.67 34.8682 126.578 33.9602 127.708 33.3115C128.857 32.6444 130.136 32.3108 131.544 32.3108C132.953 32.3108 134.222 32.6444 135.353 33.3115C136.502 33.9602 137.41 34.8682 138.077 36.0358C138.763 37.1848 139.106 38.5191 139.106 40.0388ZM135.77 40.0388C135.77 39.0936 135.575 38.2782 135.186 37.5925C134.815 36.8883 134.306 36.3416 133.657 35.9524C133.027 35.5632 132.323 35.3686 131.544 35.3686C130.766 35.3686 130.052 35.5632 129.404 35.9524C128.774 36.3416 128.264 36.8883 127.875 37.5925C127.504 38.2782 127.319 39.0936 127.319 40.0388C127.319 40.9654 127.504 41.7808 127.875 42.4851C128.264 43.1707 128.774 43.7082 129.404 44.0974C130.052 44.4865 130.766 44.6811 131.544 44.6811C132.323 44.6811 133.027 44.4865 133.657 44.0974C134.306 43.7082 134.815 43.1707 135.186 42.4851C135.575 41.7808 135.77 40.9654 135.77 40.0388Z" fill="black"/>
<path d="M151.538 32.5889C152.02 32.5889 152.419 32.7556 152.734 33.0892C153.049 33.4043 153.206 33.8027 153.206 34.2846V41.3454C153.206 43.3098 152.66 44.8665 151.566 46.0156C150.473 47.1647 148.898 47.739 146.841 47.739C144.784 47.739 143.208 47.1647 142.115 46.0156C141.04 44.8665 140.502 43.3098 140.502 41.3454V34.2846C140.502 33.8027 140.66 33.4043 140.975 33.0892C141.29 32.7556 141.688 32.5889 142.171 32.5889C142.653 32.5889 143.051 32.7556 143.366 33.0892C143.681 33.4043 143.839 33.8027 143.839 34.2846V41.3454C143.839 42.4759 144.088 43.3191 144.589 43.8751C145.089 44.4125 145.84 44.6812 146.841 44.6812C147.86 44.6812 148.62 44.4125 149.12 43.8751C149.62 43.3191 149.871 42.4759 149.871 41.3454V34.2846C149.871 33.8027 150.028 33.4043 150.343 33.0892C150.658 32.7556 151.057 32.5889 151.538 32.5889Z" fill="black"/>
<path d="M154.566 45.1537C154.381 44.8943 154.297 44.5607 154.316 44.153C154.335 43.7453 154.576 43.3932 155.039 43.0966C155.335 42.9113 155.65 42.8372 155.984 42.8742C156.317 42.8928 156.642 43.0595 156.957 43.3746C157.495 43.912 158.06 44.329 158.653 44.6255C159.246 44.922 159.987 45.0703 160.877 45.0703C161.155 45.0518 161.46 45.0147 161.794 44.9591C162.127 44.885 162.415 44.7367 162.655 44.5144C162.915 44.2734 163.045 43.912 163.045 43.4302C163.045 43.0225 162.906 42.6982 162.628 42.4572C162.35 42.2163 161.979 42.0125 161.516 41.8457C161.071 41.6789 160.571 41.5214 160.015 41.3731C159.44 41.2063 158.847 41.021 158.236 40.8171C157.642 40.6133 157.096 40.3538 156.595 40.0388C156.095 39.7052 155.687 39.2697 155.372 38.7323C155.058 38.1948 154.9 37.5184 154.9 36.703C154.9 35.7763 155.159 34.9887 155.678 34.3401C156.197 33.6914 156.864 33.1911 157.679 32.839C158.514 32.4868 159.385 32.3108 160.293 32.3108C160.867 32.3108 161.469 32.3849 162.1 32.5332C162.73 32.6629 163.332 32.8853 163.906 33.2003C164.481 33.4968 164.963 33.8953 165.352 34.3957C165.556 34.6737 165.676 35.0072 165.713 35.3964C165.751 35.7856 165.574 36.1377 165.185 36.4528C164.907 36.6751 164.583 36.7771 164.212 36.7585C163.842 36.7215 163.536 36.5918 163.295 36.3693C162.98 35.9617 162.554 35.6373 162.016 35.3964C161.497 35.1555 160.895 35.035 160.209 35.035C159.932 35.035 159.626 35.0721 159.292 35.1462C158.977 35.2018 158.699 35.3408 158.458 35.5632C158.217 35.7671 158.097 36.1007 158.097 36.564C158.097 36.9902 158.236 37.3331 158.514 37.5925C158.792 37.8334 159.162 38.0373 159.626 38.2041C160.107 38.3523 160.617 38.5006 161.155 38.6488C161.71 38.7971 162.276 38.9732 162.85 39.177C163.425 39.3809 163.953 39.6496 164.435 39.9832C164.917 40.3168 165.306 40.7523 165.602 41.2897C165.899 41.8086 166.047 42.4758 166.047 43.2912C166.047 44.2364 165.769 45.0425 165.213 45.7097C164.657 46.3768 163.962 46.8865 163.128 47.2388C162.294 47.572 161.442 47.7389 160.571 47.7389C159.477 47.7389 158.384 47.5535 157.291 47.1832C156.197 46.7938 155.289 46.1174 154.566 45.1537Z" fill="black"/>
</svg>
