<svg width="189" height="79" viewBox="0 0 189 79" fill="none" xmlns="http://www.w3.org/2000/svg">
<path d="M43.895 27.8206C43.895 23.7878 47.1643 20.5186 51.1971 20.5186C55.2298 20.5186 58.4991 23.7878 58.4991 27.8206C58.4991 31.8534 55.2298 35.1227 51.1971 35.1227C47.1643 35.1227 43.895 31.8534 43.895 27.8206Z" fill="black"/>
<path d="M51.6393 38.3586V43.6132C51.6393 45.9414 51.6377 47.5884 51.531 48.8752C51.4259 50.1421 51.2267 50.9141 50.9119 51.5193C50.2994 52.6986 49.3379 53.6605 48.1582 54.273C47.553 54.5878 46.781 54.787 45.5141 54.8921C44.2273 54.9988 42.5803 55.0004 40.2524 55.0004H35.4041C33.0761 55.0004 31.4292 54.9988 30.1426 54.8921C28.8754 54.787 28.1037 54.5878 27.4982 54.273C26.3188 53.6605 25.3571 52.6986 24.7444 51.5193C24.4299 50.9141 24.2308 50.1421 24.1255 48.8752C24.0187 47.5884 24.0173 45.9414 24.0173 43.6132V38.7652C24.0173 36.4371 24.0187 34.7902 24.1255 33.5036C24.2308 32.2364 24.4299 31.4647 24.7444 30.8593C25.3571 29.6798 26.3188 28.7181 27.4982 28.1055C28.1037 27.7909 28.8754 27.5918 30.1426 27.4866C31.4292 27.3797 33.076 27.3784 35.4041 27.3784H40.6589C40.7058 26.2409 40.9329 25.1498 41.3122 24.1331H35.3319C33.0923 24.133 31.3107 24.133 29.874 24.2523C28.4025 24.3745 27.1481 24.6302 26.0022 25.2255C24.23 26.1461 22.785 27.5911 21.8644 29.3633C21.2692 30.5091 21.0135 31.7635 20.8913 33.235C20.772 34.6717 20.772 36.4533 20.772 38.693V43.6854C20.772 45.9251 20.772 47.7068 20.8913 49.1437C21.0135 50.6151 21.2692 51.8694 21.8644 53.0154C22.785 54.7874 24.23 56.2324 26.0022 57.1533C27.1481 57.7484 28.4025 58.004 29.874 58.1265C31.3107 58.2457 33.0922 58.2457 35.3319 58.2457H40.3245C42.5641 58.2457 44.3458 58.2457 45.7826 58.1265C47.254 58.004 48.5083 57.7484 49.6544 57.1533C51.4263 56.2324 52.8713 54.7874 53.7922 53.0154C54.3873 51.8694 54.6429 50.6151 54.7654 49.1437C54.8846 47.7068 54.8847 45.9251 54.8847 43.6858V37.7053C53.8676 38.0847 52.7768 38.3117 51.6393 38.3586Z" fill="black"/>
<path d="M79.3849 38.0804C79.3849 39.0767 79.1447 40.0107 78.6644 40.8827C78.2019 41.7545 77.4636 42.4571 76.4495 42.991C75.4531 43.5244 74.1899 43.7913 72.6597 43.7913H69.5372V50.9437H65.801V32.3159H72.6597C74.101 32.3159 75.3286 32.565 76.3428 33.0632C77.3565 33.5613 78.1127 34.2463 78.6109 35.118C79.1269 35.9898 79.3849 36.9773 79.3849 38.0804ZM72.4994 40.7758C73.5315 40.7758 74.2966 40.5445 74.7947 40.0819C75.2929 39.6015 75.542 38.9343 75.542 38.0804C75.542 36.2656 74.5278 35.3582 72.4994 35.3582H69.5372V40.7758H72.4994Z" fill="black"/>
<path d="M84.7064 38.4539C85.1867 37.6711 85.8094 37.0573 86.5745 36.6125C87.3571 36.1677 88.2467 35.9453 89.243 35.9453V39.8683H88.2556C87.0816 39.8683 86.192 40.1441 85.5871 40.6956C84.9997 41.2473 84.7064 42.208 84.7064 43.5779V50.9436H80.9702V36.1588H84.7064V38.4539Z" fill="black"/>
<path d="M97.2571 51.1839C95.834 51.1839 94.5529 50.8723 93.4142 50.2496C92.2755 49.6091 91.3773 48.7109 90.7189 47.5544C90.0784 46.3978 89.7583 45.0635 89.7583 43.5512C89.7583 42.0389 90.0873 40.7046 90.7457 39.5482C91.4215 38.3917 92.338 37.5022 93.4945 36.8794C94.6507 36.2389 95.9407 35.9187 97.3642 35.9187C98.7873 35.9187 100.077 36.2389 101.234 36.8794C102.39 37.5022 103.298 38.3917 103.956 39.5482C104.632 40.7046 104.97 42.0389 104.97 43.5512C104.97 45.0635 104.623 46.3978 103.929 47.5544C103.253 48.7109 102.328 49.6091 101.154 50.2496C99.997 50.8723 98.6984 51.1839 97.2571 51.1839ZM97.2571 47.928C97.9334 47.928 98.565 47.7677 99.152 47.4477C99.7568 47.1097 100.238 46.6116 100.593 45.9532C100.949 45.2948 101.127 44.4944 101.127 43.5512C101.127 42.1456 100.753 41.0693 100.006 40.3221C99.2765 39.5571 98.378 39.1746 97.3107 39.1746C96.2433 39.1746 95.3448 39.5571 94.6154 40.3221C93.9034 41.0693 93.5477 42.1456 93.5477 43.5512C93.5477 44.9569 93.8945 46.042 94.5886 46.8071C95.3002 47.5544 96.1898 47.928 97.2571 47.928Z" fill="black"/>
<path d="M105.682 43.4981C105.682 42.0036 105.976 40.6779 106.563 39.5215C107.168 38.365 107.986 37.4754 109.018 36.8527C110.05 36.23 111.197 35.9187 112.461 35.9187C113.422 35.9187 114.338 36.1322 115.21 36.5592C116.081 36.9684 116.775 37.5199 117.291 38.2138V31.1951H121.081V50.9437H117.291V48.7551C116.829 49.4845 116.179 50.0719 115.343 50.5165C114.507 50.9616 113.537 51.1839 112.434 51.1839C111.189 51.1839 110.05 50.8634 109.018 50.2232C107.986 49.5827 107.168 48.6841 106.563 47.5276C105.976 46.3536 105.682 45.01 105.682 43.4981ZM117.318 43.5512C117.318 42.6437 117.14 41.8701 116.784 41.2296C116.428 40.5711 115.948 40.073 115.343 39.735C114.738 39.3791 114.089 39.2012 113.395 39.2012C112.701 39.2012 112.06 39.3702 111.473 39.7083C110.886 40.0463 110.406 40.5445 110.032 41.2028C109.677 41.8433 109.499 42.6084 109.499 43.4981C109.499 44.3873 109.677 45.1702 110.032 45.8465C110.406 46.5045 110.886 47.0116 111.473 47.3673C112.078 47.7235 112.719 47.9012 113.395 47.9012C114.089 47.9012 114.738 47.7324 115.343 47.3941C115.948 47.0383 116.428 46.5402 116.784 45.8996C117.14 45.2416 117.318 44.4587 117.318 43.5512Z" fill="black"/>
<path d="M137.62 36.1587V50.9435H133.857V49.0754C133.377 49.716 132.745 50.2231 131.962 50.5967C131.197 50.9524 130.361 51.1301 129.453 51.1301C128.297 51.1301 127.274 50.89 126.385 50.4097C125.495 49.9115 124.792 49.191 124.276 48.2479C123.778 47.2872 123.529 46.1485 123.529 44.8321V36.1587H127.265V44.2983C127.265 45.4727 127.559 46.3797 128.146 47.0203C128.733 47.643 129.534 47.9546 130.548 47.9546C131.58 47.9546 132.389 47.643 132.976 47.0203C133.563 46.3797 133.857 45.4727 133.857 44.2983V36.1587H137.62Z" fill="black"/>
<path d="M139.278 43.5512C139.278 42.021 139.59 40.6868 140.212 39.5482C140.835 38.3917 141.698 37.5022 142.801 36.8794C143.904 36.2389 145.167 35.9187 146.59 35.9187C148.423 35.9187 149.935 36.3813 151.127 37.3065C152.337 38.2138 153.147 39.4948 153.556 41.1492H149.526C149.312 40.5089 148.948 40.0108 148.432 39.6549C147.934 39.2813 147.311 39.0945 146.564 39.0945C145.496 39.0945 144.651 39.4859 144.028 40.2687C143.406 41.0336 143.094 42.1281 143.094 43.5512C143.094 44.9569 143.406 46.0509 144.028 46.8339C144.651 47.599 145.496 47.9815 146.564 47.9815C148.076 47.9815 149.063 47.3053 149.526 45.9532H153.556C153.147 47.5544 152.337 48.8265 151.127 49.7693C149.918 50.7125 148.405 51.1839 146.59 51.1839C145.167 51.1839 143.904 50.8723 142.801 50.2496C141.698 49.6091 140.835 48.7198 140.212 47.5811C139.59 46.4246 139.278 45.0814 139.278 43.5512Z" fill="black"/>
<path d="M159.575 39.2281V46.3801C159.575 46.8783 159.691 47.243 159.922 47.4746C160.171 47.688 160.581 47.7947 161.15 47.7947H162.885V50.9439H160.536C157.387 50.9439 155.812 49.4137 155.812 46.3537V39.2281H154.051V36.1591H155.812V32.5029H159.575V36.1591H162.885V39.2281H159.575Z" fill="black"/>
<path d="M166.159 51.1307C165.483 51.1307 164.922 50.9258 164.478 50.5169C164.051 50.0897 163.837 49.5648 163.837 48.9421C163.837 48.3194 164.051 47.8034 164.478 47.3945C164.922 46.9673 165.483 46.7539 166.159 46.7539C166.817 46.7539 167.36 46.9673 167.787 47.3945C168.214 47.8034 168.427 48.3194 168.427 48.9421C168.427 49.5648 168.214 50.0897 167.787 50.5169C167.36 50.9258 166.817 51.1307 166.159 51.1307Z" fill="black"/>
</svg>
