<svg width="22" height="22" viewBox="0 0 22 22" fill="none" xmlns="http://www.w3.org/2000/svg">
<g clip-path="url(#clip0_2_4956)">
<path opacity="0.4" d="M6.41659 8.70825L1.83325 10.9999L10.672 15.4193C10.7922 15.4794 10.8523 15.5095 10.9154 15.5213C10.9713 15.5318 11.0286 15.5318 11.0844 15.5213C11.1475 15.5095 11.2076 15.4794 11.3279 15.4193L20.1666 10.9999L15.5833 8.70825M6.41659 13.2916L1.83325 15.5833L10.672 20.0026C10.7922 20.0627 10.8523 20.0928 10.9154 20.1046C10.9713 20.1151 11.0286 20.1151 11.0844 20.1046C11.1475 20.0928 11.2076 20.0627 11.3279 20.0026L20.1666 15.5833L15.5833 13.2916" stroke="black" stroke-width="1.83333" stroke-linecap="round" stroke-linejoin="round"/>
<path d="M11.3279 1.99733C11.2076 1.93721 11.1475 1.90714 11.0844 1.89531C11.0286 1.88483 10.9713 1.88483 10.9154 1.89531C10.8523 1.90714 10.7922 1.93721 10.672 1.99733L1.83325 6.41669L10.672 10.836C10.7922 10.8962 10.8523 10.9262 10.9154 10.9381C10.9713 10.9485 11.0286 10.9485 11.0844 10.9381C11.1475 10.9262 11.2076 10.8962 11.3279 10.836L20.1666 6.41669L11.3279 1.99733Z" stroke="black" stroke-width="1.83333" stroke-linecap="round" stroke-linejoin="round"/>
</g>
<defs>
<clipPath id="clip0_2_4956">
<rect width="22" height="22" fill="white"/>
</clipPath>
</defs>
</svg>
