<svg width="72" height="73" viewBox="0 0 72 73" fill="none" xmlns="http://www.w3.org/2000/svg">
<path d="M19.2096 33.1714V35.2702C19.2096 39.6586 20.3544 43.093 22.644 45.5734C24.9336 48.0538 28.1772 49.5802 32.5656 49.9618V57.5938C25.506 57.403 19.9728 55.3042 15.966 51.1066C11.7684 46.909 9.86035 41.3758 9.86035 34.507V15.0454H26.8415L26.8416 33.1714H19.2096ZM48.7836 33.1714V35.2702C48.7836 39.6586 49.9284 43.093 52.218 45.5734C54.5076 48.0538 57.7512 49.5802 62.1396 49.9618V57.5938C55.08 57.403 49.5468 55.3042 45.54 51.1066C41.3424 46.909 39.4344 41.3758 39.4344 34.507V15.0454H56.4156V33.1714H48.7836Z" fill="#FB9953"/>
</svg>
