<svg width="190" height="69" viewBox="0 0 190 69" fill="none" xmlns="http://www.w3.org/2000/svg">
<path fill-rule="evenodd" clip-rule="evenodd" d="M105.724 48.75C104.097 48.75 102.737 48.3709 101.645 47.6124C101.525 47.5296 101.409 47.4433 101.296 47.3537V48.295H97.6558V20.563H101.812V32.4434C102.831 31.7879 104.064 31.4601 105.512 31.4601C107.079 31.4601 108.444 31.8342 109.607 32.5824C110.77 33.3306 111.67 34.3569 112.307 35.6613C112.954 36.9555 113.277 38.4368 113.277 40.1049C113.277 41.743 112.959 43.2141 112.322 44.5187C111.695 45.8229 110.815 46.8542 109.683 47.6124C108.55 48.3709 107.231 48.75 105.724 48.75ZM101.66 37.4965C101.417 38.2445 101.296 39.114 101.296 40.1049C101.296 41.0958 101.417 41.9656 101.66 42.7136C101.902 43.462 102.297 44.0431 102.843 44.458C103.399 44.8725 104.137 45.0795 105.057 45.0795C105.947 45.0795 106.675 44.8573 107.241 44.4124C107.807 43.9676 108.227 43.371 108.5 42.6226C108.773 41.8644 108.909 41.0253 108.909 40.1049C108.909 39.1949 108.768 38.366 108.485 37.6179C108.202 36.8594 107.762 36.2578 107.165 35.8129C106.579 35.3579 105.825 35.1304 104.905 35.1304C104.046 35.1304 103.348 35.3377 102.813 35.7523C102.287 36.1668 101.902 36.7481 101.66 37.4965Z" fill="black"/>
<path d="M90.3601 36.1011C90.8758 36.6976 91.1338 37.5369 91.1338 38.6185V48.295H95.2589V37.5268C95.2589 35.7371 94.7786 34.2912 93.8181 33.1891C92.8677 32.0769 91.4572 31.5208 89.5868 31.5208C88.4947 31.5208 87.4987 31.7634 86.5989 32.2487C85.775 32.6888 85.1028 33.2935 84.5825 34.063C84.1944 33.3647 83.6581 32.7903 82.974 32.3397C82.1551 31.7937 81.1035 31.5208 79.8196 31.5208C78.6972 31.5208 77.681 31.7685 76.771 32.2639C76.0834 32.6425 75.5019 33.1244 75.0267 33.7097V31.9151H71.387V48.295H75.5424V38.3761C75.5424 37.4358 75.8004 36.6723 76.3161 36.0859C76.8419 35.4893 77.5343 35.1911 78.3936 35.1911C79.2938 35.1911 79.9963 35.4944 80.5019 36.1011C81.0175 36.6976 81.2756 37.5369 81.2756 38.6185V48.295H85.4006V38.3761C85.4006 37.7491 85.517 37.198 85.7497 36.7229C85.9922 36.2376 86.3257 35.8634 86.7507 35.6006C87.1753 35.3276 87.6758 35.1911 88.2522 35.1911C89.152 35.1911 89.8545 35.4944 90.3601 36.1011Z" fill="black"/>
<path d="M56.6071 48.128C57.4159 48.5627 58.4624 48.7803 59.7467 48.7803C61.3541 48.7803 62.6839 48.4316 63.7355 47.7338C64.2346 47.406 64.6744 47.0298 65.0549 46.6059V48.295H68.695V31.915H64.5392V40.2262C64.5392 41.2374 64.4229 42.0562 64.1905 42.6832C63.9679 43.3001 63.6799 43.7702 63.3257 44.0936C62.972 44.4073 62.5929 44.6194 62.1885 44.7307C61.7841 44.8421 61.4047 44.8977 61.0509 44.8977C60.1713 44.8977 59.4887 44.7004 59.0034 44.3061C58.5282 43.9119 58.1845 43.4215 57.972 42.835C57.7599 42.2485 57.6334 41.667 57.5929 41.0906C57.5525 40.5045 57.5322 40.0242 57.5322 39.6499V31.915H53.3464V41.1058C53.3464 41.379 53.3663 41.8138 53.4068 42.4104C53.4473 43.007 53.5636 43.669 53.7559 44.3972C53.9478 45.1149 54.2665 45.8076 54.7113 46.4751C55.1663 47.1422 55.7984 47.6933 56.6071 48.128Z" fill="black"/>
<path d="M119.193 33.8563C119.026 34.0765 118.874 34.308 118.738 34.5508V31.915H115.098V48.2949H119.254V39.923C119.254 39.296 119.34 38.7348 119.512 38.2393C119.684 37.7338 119.936 37.299 120.27 36.9351C120.604 36.561 121.013 36.2627 121.498 36.0403C121.984 35.8077 122.525 35.6712 123.121 35.6308C123.728 35.5802 124.259 35.6257 124.714 35.7673V31.915C124.218 31.8543 123.723 31.8442 123.227 31.8846C122.732 31.915 122.252 32.0009 121.786 32.1424C121.321 32.2739 120.892 32.461 120.497 32.7036C119.982 33.007 119.547 33.3912 119.193 33.8563Z" fill="black"/>
<path fill-rule="evenodd" clip-rule="evenodd" d="M133.399 48.7499C131.721 48.7499 130.24 48.391 128.956 47.673C127.681 46.9452 126.68 45.9492 125.953 44.6851C125.235 43.4113 124.876 41.9553 124.876 40.3172C124.876 38.5277 125.23 36.9706 125.937 35.646C126.645 34.3214 127.621 33.2951 128.865 32.5671C130.108 31.829 131.539 31.46 133.157 31.46C134.876 31.46 136.337 31.8644 137.54 32.6733C138.743 33.4822 139.633 34.6197 140.209 36.0858C140.786 37.552 140.988 39.2758 140.816 41.2575H129.314C129.443 42.2408 129.748 43.0394 130.229 43.6538C130.897 44.4831 131.873 44.8976 133.157 44.8976C133.966 44.8976 134.658 44.7206 135.234 44.3668C135.811 44.013 136.251 43.5024 136.554 42.8349L140.679 44.018C140.062 45.5145 139.087 46.677 137.752 47.506C136.428 48.3354 134.977 48.7499 133.399 48.7499ZM135.932 36.1465C136.285 36.6254 136.521 37.3081 136.642 38.1938H129.423C129.584 37.4375 129.853 36.8155 130.229 36.3284C130.897 35.469 131.933 35.0393 133.339 35.0393C134.542 35.0393 135.406 35.4084 135.932 36.1465Z" fill="black"/>
<path fill-rule="evenodd" clip-rule="evenodd" d="M159.204 48.0824C160.023 48.5273 161.019 48.7499 162.191 48.7499C163.607 48.7499 164.775 48.507 165.695 48.0217C166.429 47.631 167.121 47.0521 167.773 46.2842V48.2949H171.383V38.2849C171.383 37.5368 171.352 36.8593 171.291 36.2526C171.231 35.646 171.039 35.0393 170.715 34.4326C170.139 33.3406 169.289 32.5722 168.167 32.1273C167.045 31.6824 165.761 31.46 164.315 31.46C162.343 31.46 160.786 31.8846 159.643 32.734C158.501 33.5833 157.722 34.6854 157.308 36.0403L161.039 37.2232C161.302 36.475 161.762 35.9543 162.419 35.6611C163.076 35.3679 163.708 35.2213 164.315 35.2213C165.407 35.2213 166.185 35.4488 166.65 35.9038C167.016 36.2611 167.238 36.7772 167.316 37.4526C166.618 37.5585 165.956 37.659 165.331 37.754C164.269 37.9058 163.319 38.0677 162.48 38.2393C161.64 38.4114 160.918 38.6087 160.311 38.8309C159.431 39.1543 158.728 39.5591 158.203 40.0444C157.687 40.5196 157.313 41.0703 157.08 41.6973C156.848 42.3243 156.731 43.017 156.731 43.7752C156.731 44.6851 156.939 45.5192 157.353 46.2777C157.778 47.0257 158.395 47.6274 159.204 48.0824ZM164.982 45.1098C164.467 45.3728 163.83 45.5044 163.071 45.5044C162.596 45.5044 162.186 45.4335 161.843 45.2919C161.499 45.1502 161.231 44.9482 161.039 44.6851C160.857 44.4123 160.766 44.0885 160.766 43.7145C160.766 43.4417 160.821 43.1938 160.933 42.9715C161.054 42.7489 161.236 42.5469 161.479 42.3648C161.731 42.1725 162.06 41.9958 162.465 41.8339C162.818 41.7024 163.228 41.581 163.693 41.47C164.158 41.3587 164.77 41.2373 165.528 41.1057C166.015 41.015 166.599 40.9113 167.278 40.7953C167.269 41.0837 167.251 41.4097 167.227 41.7732C167.196 42.3597 167.075 42.8754 166.863 43.3202C166.752 43.5526 166.539 43.841 166.226 44.1846C165.923 44.5283 165.508 44.8369 164.982 45.1098Z" fill="black"/>
<path d="M143.027 20.1079V48.295H147.153V20.1079H143.027Z" fill="black"/>
<path d="M150.486 48.295V20.1079H154.611V48.295H150.486Z" fill="black"/>
<path fill-rule="evenodd" clip-rule="evenodd" d="M30.5797 32.0331H19.3772V36.9117C19.3772 44.1962 25.2826 50.1017 32.5673 50.1017C39.852 50.1017 45.7576 44.1962 45.7576 36.9117V32.0331H34.1935V24.2636C34.1935 21.1701 31.6857 18.6624 28.5922 18.6624C25.4987 18.6624 22.9909 21.1701 22.9909 24.2636H26.6046C26.6046 23.1659 27.4945 22.2761 28.5922 22.2761C29.6899 22.2761 30.5797 23.1659 30.5797 24.2636V32.0331ZM30.5797 35.6469V42.5129H34.1935V35.6469H42.1438V36.9117C42.1438 42.2007 37.8562 46.488 32.5673 46.488C27.2784 46.488 22.9909 42.2007 22.9909 36.9117V35.6469H30.5797Z" fill="black"/>
</svg>
